<svg xmlns="http://www.w3.org/2000/svg" width="1200" height="900" viewBox="0 0 1200 900" role="img" aria-label="Appartamento in centro storico — Bologna">
  <defs>
    <linearGradient id="bg" x1="0" y1="0" x2="1" y2="1">
      <stop offset="0" stop-color="#16263F"/>
      <stop offset="1" stop-color="#0F1B2E"/>
    </linearGradient>
    <radialGradient id="glow" cx="0.5" cy="0.42" r="0.75">
      <stop offset="0" stop-color="#F5A623" stop-opacity="0.14"/>
      <stop offset="1" stop-color="#F5A623" stop-opacity="0"/>
    </radialGradient>
  </defs>
  <rect width="1200" height="900" fill="url(#bg)"/>
  <rect width="1200" height="900" fill="url(#glow)"/>
  <g>
    <line x1="84" y1="120" x2="84" y2="780" stroke="#F5A623" stroke-opacity="0.10" stroke-width="1"/>
    <line x1="294" y1="120" x2="294" y2="780" stroke="#F5A623" stroke-opacity="0.10" stroke-width="1"/>
    <line x1="481" y1="120" x2="481" y2="780" stroke="#F5A623" stroke-opacity="0.10" stroke-width="1"/>
    <line x1="658" y1="120" x2="658" y2="780" stroke="#F5A623" stroke-opacity="0.10" stroke-width="1"/>
    <line x1="832" y1="120" x2="832" y2="780" stroke="#F5A623" stroke-opacity="0.10" stroke-width="1"/>
    <line x1="1041" y1="120" x2="1041" y2="780" stroke="#F5A623" stroke-opacity="0.10" stroke-width="1"/>
    <line x1="60" y1="173" x2="1140" y2="173" stroke="#E9EDF4" stroke-opacity="0.07" stroke-width="1"/>
    <line x1="60" y1="327" x2="1140" y2="327" stroke="#E9EDF4" stroke-opacity="0.07" stroke-width="1"/>
    <line x1="60" y1="507" x2="1140" y2="507" stroke="#E9EDF4" stroke-opacity="0.07" stroke-width="1"/>
    <line x1="60" y1="683" x2="1140" y2="683" stroke="#E9EDF4" stroke-opacity="0.07" stroke-width="1"/>
    <line x1="180" y1="180" x2="420" y2="300" stroke="#F5A623" stroke-opacity="0.22" stroke-width="1.5"/>
    <line x1="1020" y1="180" x2="780" y2="300" stroke="#F5A623" stroke-opacity="0.22" stroke-width="1.5"/>
    <line x1="180" y1="720" x2="420" y2="600" stroke="#F5A623" stroke-opacity="0.22" stroke-width="1.5"/>
    <line x1="1020" y1="720" x2="780" y2="600" stroke="#F5A623" stroke-opacity="0.22" stroke-width="1.5"/>
    <rect x="420" y="300" width="360" height="300" fill="none" stroke="#F5A623" stroke-opacity="0.35" stroke-width="1.5"/>
    <rect x="180" y="180" width="840" height="540" fill="none" stroke="#E9EDF4" stroke-opacity="0.16" stroke-width="1.5"/>
    <rect x="560" y="420" width="80" height="180" fill="none" stroke="#F5A623" stroke-opacity="0.55" stroke-width="2"/>
    <circle cx="628" cy="515" r="3.5" fill="#F5A623" fill-opacity="0.8"/>
  </g>
  <g>
    <text x="80" y="782" font-family="Georgia, 'Times New Roman', serif" font-size="52" font-weight="600" fill="#F4EEE3">Appartamento in centro storico</text>
    <text x="80" y="828" font-family="Arial, Helvetica, sans-serif" font-size="26" letter-spacing="3" fill="#F5A623">BOLOGNA</text>
    <text x="1120" y="120" text-anchor="end" font-family="Arial, Helvetica, sans-serif" font-size="22" letter-spacing="4" fill="#E9EDF4" fill-opacity="0.5">MONDIAL SERVICE — 01</text>
  </g>
</svg>